<svg width="25" height="20" viewBox="0 0 25 20" fill="none" xmlns="http://www.w3.org/2000/svg">
<path fill-rule="evenodd" clip-rule="evenodd" d="M23.5507 10.1461H21.5235C21.3208 10.1461 21.0484 9.81092 21.0484 9.40618V3.9485C21.0484 1.79199 19.4963 0.0402222 17.5387 0.0402222C15.5812 0.0402222 14.0291 1.79199 14.0291 3.9485V11.2212V15.1927C14.0291 16.135 13.4209 16.8749 12.6797 16.8749C11.9385 16.8749 11.3304 16.0654 11.3304 15.1927V11.2212V9.39985C11.3304 7.24334 9.77826 5.49157 7.82073 5.49157C5.86319 5.49157 4.3111 7.24334 4.3111 9.39985C4.3111 9.80459 4.03869 10.1398 3.83597 10.1398H1.40963C0.801466 10.1398 0.332672 10.6141 0.332672 11.2149C0.332672 11.822 0.807801 12.29 1.40963 12.29H3.83597C5.31837 12.29 6.46502 11.0125 6.46502 9.39353C6.46502 8.45124 7.07319 7.64176 7.81439 7.64176C8.55559 7.64176 9.16376 8.45124 9.16376 9.39353V11.2149V15.1864C9.16376 17.3429 10.7159 19.0947 12.6734 19.0947C14.6309 19.0947 16.183 17.3429 16.183 15.1864V11.2149V3.94218C16.183 2.99989 16.7912 2.25997 17.5324 2.25997C18.2736 2.25997 18.8818 3.06945 18.8818 3.94218V9.39985C18.8818 11.0188 20.0981 12.2963 21.5108 12.2963H23.538C24.1462 12.2963 24.615 11.822 24.615 11.2212C24.6974 10.6204 24.1589 10.1461 23.5507 10.1461Z" fill="white"/>
</svg>
