<svg width="32" height="29" viewBox="0 0 32 29" fill="none" xmlns="http://www.w3.org/2000/svg">
<path d="M22.9067 0.0316162H9.41305C4.55405 0.0316162 0.638977 3.93989 0.638977 8.79045V13.7106C0.638977 18.5611 4.55405 22.4694 9.41305 22.4694H10.1542V27.9903C10.1542 28.2623 10.2873 28.5279 10.5597 28.667C10.8321 28.7998 11.0982 28.7366 11.3706 28.5974L19.5365 22.4694H22.9764C27.8354 22.4694 31.7505 18.5611 31.7505 13.7106V8.79045C31.6175 3.93989 27.7024 0.0316162 22.9067 0.0316162ZM22.9067 10.2766C23.648 10.2766 24.2561 10.6813 24.5919 11.3517C24.8643 12.0284 24.7249 12.7683 24.1864 13.3058C23.648 13.8434 22.9067 13.9825 22.2289 13.7106C21.551 13.4387 21.1519 12.7683 21.1519 12.0916C21.1519 11.6173 21.3547 11.1493 21.6904 10.8142C21.9628 10.479 22.438 10.2766 22.9067 10.2766ZM16.0965 10.2766C16.8377 10.2766 17.4459 10.6813 17.7817 11.3517C18.0541 12.0284 17.9147 12.7683 17.3762 13.3058C16.8378 13.8434 16.0965 13.9825 15.4187 13.7106C14.7408 13.4387 14.3417 12.7683 14.3417 12.0916C14.3417 11.6173 14.5445 11.1493 14.8802 10.8142C15.216 10.479 15.6214 10.2766 16.0965 10.2766ZM9.34338 13.8434C8.60217 13.8434 7.99399 13.4386 7.65823 12.7683C7.32247 12.0916 7.5252 11.3517 8.06368 10.8142C8.60216 10.2766 9.34334 10.1375 10.0212 10.4094C10.699 10.6813 11.0982 11.3517 11.0982 12.0916C11.0982 13.0339 10.2873 13.8434 9.34338 13.8434Z" fill="white"/>
</svg>
