<svg width="17" height="22" viewBox="0 0 17 22" fill="none" xmlns="http://www.w3.org/2000/svg">
<path fill-rule="evenodd" clip-rule="evenodd" d="M8.28327 15.4651C5.9773 15.4651 4.07678 13.5236 4.07678 11.1773V5.21375C4.07678 2.82326 5.93296 0.926025 8.28327 0.926025C10.5892 0.926025 12.4898 2.86752 12.4898 5.21375V11.1773C12.4898 13.5236 10.5892 15.4651 8.28327 15.4651ZM16.1578 10.8169C16.1578 15.0161 13.0346 18.4943 9.0118 18.8548V20.303H10.9567C11.3621 20.303 11.6789 20.6635 11.6789 21.0682C11.6789 21.4729 11.3621 21.8334 10.9567 21.8334H5.52751C5.12207 21.8334 4.80531 21.4729 4.80531 21.0682C4.80531 20.6635 5.12207 20.303 5.52751 20.303H7.47238V18.8548C3.49395 18.45 0.326416 15.0161 0.326416 10.8169C0.326416 10.4121 0.643169 10.0517 1.04861 10.0517C1.45406 10.0517 1.77081 10.4121 1.77081 10.8169C1.77081 14.4279 4.6216 17.3623 8.15023 17.3623C11.6789 17.3623 14.5297 14.4279 14.5297 10.8169C14.5297 10.4121 14.8464 10.0517 15.2518 10.0517C15.841 10.0453 16.1578 10.4058 16.1578 10.8169Z" fill="white"/>
</svg>
