<svg width="16" height="14" viewBox="0 0 16 14" fill="none" xmlns="http://www.w3.org/2000/svg">
<path d="M15.1348 7.58147C15.0081 3.58465 11.7392 0.422607 7.7354 0.422607C3.73163 0.422607 0.462731 3.61627 0.336029 7.58147V10.2566C0.336029 10.383 0.367705 10.4842 0.39938 10.6107C0.39938 12.255 1.75509 13.5767 3.40221 13.5767C3.92168 13.5767 4.30812 13.1593 4.30812 12.6407V8.54272C4.30812 8.02415 3.92168 7.60677 3.40221 7.60677C2.95241 7.60677 2.49629 7.73324 2.07817 7.92929V7.57514C2.1732 4.50796 4.69456 2.09217 7.76707 2.09217C10.8396 2.09217 13.3546 4.51429 13.456 7.57514V7.89768C13.0379 7.70163 12.6134 7.60677 12.1636 7.60677C11.9039 7.60677 11.6758 7.70163 11.5174 7.89768C11.3527 8.0621 11.2577 8.31506 11.2577 8.54272V12.6407C11.2577 12.9 11.3527 13.1277 11.5174 13.2858C11.6821 13.4502 11.9355 13.5767 12.1636 13.5767C13.8107 13.5767 15.1031 12.255 15.1348 10.6107C15.1348 10.6107 15.1348 10.5475 15.1348 10.5158C15.1664 10.4526 15.1664 10.3514 15.1664 10.2882L15.1348 7.58147Z" fill="white"/>
</svg>
