<svg width="25" height="22" viewBox="0 0 25 22" fill="none" xmlns="http://www.w3.org/2000/svg">
<path fill-rule="evenodd" clip-rule="evenodd" d="M6.61725 13.7536L12.2064 2.7755C12.2702 2.66626 12.3885 2.62075 12.4795 2.62075C12.5797 2.62075 12.698 2.66626 12.7526 2.7755L18.3327 13.7536C18.3873 13.8538 18.3782 13.9721 18.3236 14.0631C18.269 14.1632 18.1688 14.2179 18.0505 14.2179H6.88124C6.772 14.2179 6.67186 14.1632 6.61725 14.0631C6.56263 13.9721 6.56263 13.8538 6.61725 13.7536ZM5.71606 15.8564H19.243C19.3613 15.8564 19.4615 15.9201 19.5161 16.0294L22.1923 21.3181C22.2105 21.3637 22.2561 21.391 22.3107 21.391H23.931C23.9765 21.391 24.022 21.3637 24.0402 21.3273C24.0584 21.2817 24.0676 21.2362 24.0493 21.1907L14.0816 1.62853C14.027 1.5284 13.5355 0.618103 12.4795 0.618103C11.3963 0.618103 10.8956 1.58301 10.8774 1.61942L0.909724 21.1907C0.891518 21.2362 0.891513 21.2817 0.918822 21.3273C0.946131 21.3728 0.982538 21.391 1.02805 21.391H2.64837C2.70299 21.391 2.7394 21.3637 2.76671 21.3181L5.44297 16.0294C5.48849 15.9201 5.59773 15.8564 5.71606 15.8564Z" fill="#042132"/>
</svg>
