<svg width="18" height="22" viewBox="0 0 18 22" fill="none" xmlns="http://www.w3.org/2000/svg">
<path fill-rule="evenodd" clip-rule="evenodd" d="M0.590805 20.4079C0.590805 20.945 1.00954 21.391 1.52841 21.391H17.24C17.3129 21.391 17.3675 21.3273 17.3675 21.2545V19.8526C17.3675 19.7798 17.3129 19.7161 17.24 19.7161H2.7755C2.60255 19.7161 2.466 19.5704 2.466 19.3884V11.5143C2.466 11.3323 2.60255 11.1957 2.7755 11.1957H16.2842C16.3571 11.1957 16.4117 11.132 16.4117 11.0592V9.70284C16.4117 9.63002 16.3571 9.5663 16.2842 9.5663H2.7755C2.60255 9.5663 2.466 9.42065 2.466 9.2477V2.58436C2.466 2.4023 2.60255 2.26576 2.7755 2.26576H17.0216C17.0944 2.26576 17.149 2.20204 17.149 2.12921V0.727364C17.149 0.65454 17.0944 0.59082 17.0216 0.59082H1.52841C1.00954 0.59082 0.590805 1.02776 0.590805 1.57394V20.4079Z" fill="#042132"/>
</svg>
