<svg width="19" height="22" viewBox="0 0 19 22" fill="none" xmlns="http://www.w3.org/2000/svg">
<path fill-rule="evenodd" clip-rule="evenodd" d="M18.0526 14.0995C17.7522 13.5716 17.3516 13.0982 16.851 12.6795C16.3503 12.2699 15.7495 11.9057 15.0759 11.6053C14.4023 11.2958 13.6832 11.0228 12.9276 10.7679C12.1721 10.5221 11.3892 10.2854 10.5882 10.076C9.78711 9.85758 9.00426 9.64821 8.25783 9.43884C7.52049 9.23858 6.80136 9.01101 6.10954 8.76523C5.44502 8.52855 4.84422 8.26457 4.35266 7.97327C3.852 7.68198 3.46059 7.34517 3.1693 6.97195C2.878 6.59873 2.73235 6.1709 2.73235 5.67023C2.73235 5.06944 2.878 4.56878 3.1966 4.13184C3.5061 3.704 3.95214 3.33989 4.54383 3.0577C5.11732 2.78461 5.81825 2.62986 6.71033 2.48421C7.52959 2.35677 8.46719 2.28395 9.50492 2.28395H16.8328C16.8601 2.28395 16.8965 2.26574 16.9238 2.23843C16.942 2.21112 16.9602 2.18381 16.9602 2.1474V0.745554C16.9602 0.672731 16.9056 0.609009 16.8419 0.609009H16.7235H9.52313C8.804 0.609009 6.71033 0.663627 5.51785 0.964024C4.88975 1.10967 4.28895 1.31904 3.74277 1.58302C3.18749 1.8379 2.70505 2.16561 2.28631 2.54793C1.87668 2.93025 1.53987 3.3854 1.30319 3.91337C1.06652 4.43224 0.948181 5.05124 0.948181 5.72485C0.948181 6.41667 1.09382 7.02657 1.39422 7.54544C1.69461 8.0643 2.09515 8.52855 2.59581 8.91998C3.09647 9.3114 3.68816 9.65731 4.36178 9.95771C5.03539 10.249 5.75452 10.513 6.50095 10.7497C7.24739 10.9772 8.03026 11.2048 8.83131 11.4051C9.63237 11.6053 10.4152 11.8147 11.1525 12.015C11.9081 12.2243 12.6272 12.4519 13.2826 12.6977C13.9563 12.9344 14.5479 13.2166 15.0395 13.5352C15.5402 13.8447 15.9316 14.2179 16.2229 14.6275C16.5142 15.0462 16.6507 15.5105 16.6507 16.0567C16.6507 16.7485 16.4687 17.3129 16.1045 17.7771C15.7495 18.2505 15.2307 18.6328 14.5844 18.9241C13.9107 19.2245 13.0915 19.361 12.2449 19.4976C11.4165 19.625 10.4516 19.6887 9.29556 19.7069H1.14845C1.08473 19.7069 1.0301 19.7707 1.0301 19.8435V21.2453C1.0301 21.3182 1.08473 21.3819 1.14845 21.3819L9.23183 21.391C9.93276 21.391 10.661 21.3637 11.3892 21.2908C12.1175 21.2271 12.8275 21.1179 13.5102 20.9631L13.665 20.9267C14.284 20.7902 14.8756 20.6536 15.44 20.4079C16.0499 20.1439 16.5779 19.798 17.0239 19.3883C17.47 18.9787 17.8341 18.4871 18.0981 17.9319C18.3621 17.3675 18.4986 16.703 18.4986 15.9474C18.4986 15.2465 18.353 14.6275 18.0526 14.0995Z" fill="#042132"/>
</svg>
